PathFileType	4	(X/Y/Z)	C:/Users/beibeiliu/ov580/test_trc/User1\sequence.14_training_dense_left.trc
DataRate	CameraRate	NumFrames	NumMarkers	Units	OrigDataRate	OrigDataStartFrame	OrigNumFrames
120	120	24	19	mm	120	34	267
Frame#	Time	ThumbCMC			ThumbMCP			ThumbIP			ThumbTip			IndexMCP			IndexPIP			IndexTip			MiddleMCP			MiddlePIP			MiddleTip			RingMCP			RingPIP			RingTip			PinkyMCP			PinkyPIP			PinkyTip			BackHand1			BackHand2			BackHand3	
		X0	Y0	Z0	X1	Y1	Z1	X2	Y2	Z2	X3	Y3	Z3	X4	Y4	Z4	X5	Y5	Z5	X6	Y6	Z6	X7	Y7	Z7	X8	Y8	Z8	X9	Y9	Z9	X10	Y10	Z10	X11	Y11	Z11	X12	Y12	Z12	X13	Y13	Z13	X14	Y14	Z14	X15	Y15	Z15	X16	Y16	Z16	X17	Y17	Z17	X18	Y18	Z18	
33	0.275	-223.78	129.906	41.9009	-199.544	138.638	14.0083	-188.312	139.453	-14.8005	-176.156	136.899	-31.8239	-237.186	106.481	-38.4219	-214.564	105.241	-62.4867	-181.729	111.044	-61.6863	-238.492	82.1615	-46.159	-220.686	81.8681	-71.7026	-191.074	87.2459	-85.1258	-231.69	61.7276	-38.8724	-216.784	60.1832	-63.1401	-190.299	65.5613	-79.4566	-216.145	39.6898	-21.0341	-205.338	43.2915	-40.7799	-191.359	45.9028	-62.3185	-247.102	64.2936	21.5041	-246.889	64.6238	53.9685	-254.269	94.6342	35.2736	
34	0.283333	-225.16	129.17	41.3032	-199.076	141.707	16.5919	-188.515	142.937	-8.69677	-175.953	142.129	-30.8201	-240.037	108.965	-38.7634	-215.764	105.934	-66.0957	-188.659	108.045	-69.0813	-240.847	82.4034	-48.1064	-221.66	81.2968	-75.0234	-190.606	87.2217	-90.2141	-233.704	59.1701	-37.6206	-219.705	62.2494	-67.4586	-193.976	64.8872	-83.1552	-217.685	41.2706	-15.9062	-206.28	42.1432	-42.8569	-192.711	49.667	-64.4239	-246.79	65.0806	20.9131	-246.477	64.7259	57.082	-254.031	94.3775	34.0403	
35	0.291667	-226.015	132.582	41.8888	-202.109	143.126	13.788	-190.684	145.846	-7.91408	-175.716	147.366	-29.2588	-243.375	110.17	-41.3277	-222.428	110.2	-69.7701	-195.539	110.105	-75.4982	-242.132	78.8549	-48.2567	-226.546	83.0696	-76.447	-199.334	87.9196	-94.9371	-234.319	59.1395	-38.1374	-221.532	60.9086	-69.0553	-200.243	65.6695	-84.1992	-218.199	41.9025	-21.8968	-207.107	43.2199	-44.6819	-193.822	47.8795	-63.4615	-246.955	62.893	18.4668	-247.525	63.6069	54.4291	-253.037	96.0702	34.8614	
36	0.3	-227.614	133.612	40.7759	-203.351	142.733	13.6372	-191.146	146.781	-8.17411	-174.686	153.885	-30.3781	-242.332	106.887	-41.1901	-226.898	105.532	-66.7382	-196.394	108.194	-76.8135	-243.832	81.2176	-45.8833	-231.254	83.7449	-74.9772	-202.566	83.6445	-94.6304	-234.327	60.5056	-36.2705	-223.806	61.2688	-65.333	-198.758	68.3253	-87.519	-217.75	45.7591	-22.3476	-208.132	46.5639	-43.646	-192.101	50.7538	-66.2249	-244.118	61.7067	21.5757	-247.402	64.5919	52.9468	-253.515	95.9544	33.9301	
37	0.308333	-227.349	131.224	38.5917	-203.553	141.682	11.182	-191.207	145.119	-9.21046	-175.823	150.567	-31.7093	-241.727	107.273	-44.8734	-223.709	107.705	-68.8014	-194.055	114.281	-75.1863	-243.59	80.3805	-44.025	-230.321	82.0164	-75.181	-203.153	83.8026	-94.3119	-234.609	59.8241	-36.7698	-222.863	64.2919	-69.375	-197.831	65.3647	-88.0529	-219.099	44.2291	-17.2753	-208.238	44.1687	-42.2599	-198.207	54.059	-64.3773	-245.602	66.8791	23.2039	-246.717	62.0024	54.5776	-255.867	99.8713	32.2978	
38	0.316667	-227.897	129.791	39.189	-202.078	143.617	12.4007	-191.247	145.294	-13.3654	-177.687	142.046	-32.115	-242.759	110.493	-40.7748	-221.1	113.582	-67.6372	-188.581	115.42	-68.0339	-245.886	86.3066	-45.1531	-230.014	84.0808	-75.8154	-200.383	86.3132	-96.2306	-236.32	64.7275	-39.1159	-224.209	64.2523	-68.0374	-201.738	67.7467	-85.7791	-219.135	47.4776	-20.9027	-208.441	44.7861	-42.5554	-192.629	53.8969	-67.7671	-244.461	64.6754	22.5277	-248.023	68.3607	53.8397	-257.437	101.009	33.8161	
39	0.325	-227.53	128.901	39.1616	-203.341	137.952	13.3046	-191.687	140.432	-17.2938	-178.068	136.24	-41.0626	-238.036	110.967	-45.4256	-217.844	112.821	-64.2883	-182.614	120.023	-60.3441	-243.828	82.0267	-48.5908	-227.364	84.614	-76.9537	-202.201	85.9236	-93.3579	-236.753	65.7494	-38.6366	-222.584	64.1597	-68.4536	-198.771	66.551	-87.3029	-218.908	46.2274	-22.92	-207.559	46.4709	-44.1879	-190.719	56.5085	-65.4233	-248.082	67.4577	21.7666	-246.904	66.0152	53.8676	-256.304	102.16	35.7272	
40	0.333333	-226.607	134.301	36.2658	-203.336	139.047	8.25341	-192.321	140.026	-18.7907	-177.858	135.543	-41.3144	-236.55	109.296	-46.2299	-212.273	113.884	-63.1831	-180.937	117.471	-56.9246	-242.898	82.308	-48.4941	-227.781	84.1044	-75.9937	-200.317	91.4826	-95.1804	-235.146	61.91	-39.385	-223.352	63.3456	-68.414	-198.093	69.9477	-87.5172	-220.328	47.8709	-20.5057	-207.112	45.1449	-43.2508	-193.681	57.361	-65.9408	-246.191	62.8716	18.3567	-246.852	66.6907	53.9599	-256.775	98.4758	34.3761	
41	0.341667	-228.217	134.388	35.6629	-202.907	138.713	10.524	-190.717	139.791	-22.082	-179.095	131.712	-42.1662	-237.417	111.006	-44.509	-213.663	112.481	-63.6276	-181.255	116.709	-57.1328	-241.91	80.9269	-50.3476	-226.475	84.0394	-77.6684	-197.038	85.9732	-95.0619	-234.09	59.7143	-39.1965	-222.107	64.3279	-68.5179	-198.586	70.5466	-86.3235	-216.906	43.8236	-22.1527	-205.271	46.3581	-44.8398	-188.203	56.0699	-67.6146	-245.331	64.7149	19.2692	-246.057	69.3384	52.812	-255.972	100.507	34.5321	
42	0.35	-227.161	130.805	33.0309	-202.74	142.15	7.69597	-192.16	134.841	-21.3531	-178.901	130.769	-39.5816	-238.4	111.631	-45.2802	-209.336	112.831	-64.3046	-177.261	120.622	-56.5664	-240.969	80.7442	-51.6128	-224.685	81.3672	-78.206	-195.107	90.2831	-97.0019	-232.289	59.601	-39.1285	-217.396	59.1192	-69.552	-196.518	68.2373	-86.3303	-215.538	43.9219	-21.911	-204.707	46.8831	-45.1392	-190.619	57.0925	-66.4434	-244.677	64.6761	21.6848	-244.333	67.1604	54.1548	-254.78	98.3315	34.1673	
43	0.358333	-227.344	131.608	34.7199	-204.074	137.52	7.47776	-192.342	137.715	-17.3516	-177.736	131.53	-42.624	-235.127	105.152	-45.9085	-212.685	111.179	-65.1409	-180.518	116.707	-58.7661	-240.721	78.1681	-47.2453	-224.799	83.3622	-79.6947	-196.534	86.4179	-94.5428	-231.655	59.7561	-42.0695	-219.695	59.0568	-67.4087	-194.406	63.6107	-85.8346	-216.049	45.9894	-23.857	-204.182	45.293	-43.8078	-191.637	54.1363	-64.3048	-244.988	64.5754	18.7838	-243.822	63.0485	54.6862	-254.697	99.0095	34.5999	
44	0.366667	-228.007	127.084	37.0072	-203.899	140.672	7.38319	-193.245	139.817	-23.0078	-181.069	131.544	-40.7846	-236.735	107.316	-44.5829	-212.555	108.862	-64.6707	-178.355	116.797	-56.4075	-241.377	79.703	-46.4196	-225.595	78.928	-75.4026	-196.421	86.0036	-95.4317	-230.037	56.8672	-42.24	-218.563	57.2094	-66.8589	-192.662	62.5232	-84.9864	-215.151	44.2905	-18.8621	-200.335	44.0083	-44.5573	-187.327	56.8813	-65.9166	-242.993	62.8645	21.1154	-244.572	66.9914	53.3889	-256.538	97.8629	30.9459	
45	0.375	-229.504	128.056	34.0242	-206.143	139.106	4.81807	-194.71	137.369	-18.0701	-181.379	136.137	-37.8462	-237.159	106.102	-46.124	-210.82	110.889	-64.9911	-180.266	118.927	-56.4688	-239.881	77.0536	-50.0642	-220.819	76.2035	-78.4323	-196.337	83.4041	-95.2866	-231.293	58.5974	-40.1152	-217.238	56.9533	-66.2279	-189.816	63.4923	-85.6351	-211.777	41.8176	-22.7307	-198.605	41.3186	-42.2582	-186.957	52.4386	-63.2341	-241.048	57.7879	22.0413	-245.202	64.9199	55.6819	-255.246	94.7833	32.9137	
46	0.383333	-233.478	127.986	30.4588	-208.773	141.692	5.62573	-197.529	139.564	-19.3092	-183.029	132.523	-41.3132	-238.767	103.613	-46.4849	-213.63	106.29	-66.0864	-180.867	115.512	-56.2326	-240.317	75.3369	-50.9626	-221.405	76.6384	-80.6472	-194.814	81.8566	-95.1916	-227.226	51.084	-38.6101	-215.224	55.5386	-67.9864	-189.982	59.5303	-83.6423	-209.12	40.4497	-23.3369	-199.996	42.3136	-40.7062	-183.831	53.0003	-60.9255	-241.793	59.1107	18.8902	-242.381	61.728	54.7786	-255.798	93.0225	30.8918	
47	0.391667	-235.334	126.871	30.6375	-212.183	135.898	4.4937	-200.129	141.989	-23.7473	-184.164	139.32	-42.2209	-238.691	99.0016	-50.5897	-217.144	104.602	-67.9785	-185.149	118.191	-62.4989	-238.778	69.7552	-48.4141	-220.579	69.8196	-78.7854	-194.114	81.0778	-96.9943	-224.145	50.0269	-42.9245	-212.421	53.7069	-68.1542	-187.772	59.8898	-85.7388	-207.528	41.3281	-20.5408	-193.463	41.8742	-42.4771	-179.007	54.9039	-63.3922	-237.475	56.2019	21.1995	-243.751	60.0267	50.5225	-257.58	88.6748	29.5705	
48	0.4	-239.321	122.831	32.8018	-216.897	135.971	5.42194	-205.042	143.293	-22.9401	-189.243	136.822	-42.1935	-242.968	93.6245	-49.8019	-219.535	97.6104	-71.6263	-190.085	112.588	-69.6126	-237.122	64.6795	-49.0626	-222.395	70.2213	-81.1948	-195.156	81.4146	-99.7883	-224.271	51.2353	-39.8032	-207.566	49.1079	-69.9285	-187.017	64.4953	-87.8484	-202.144	38.0886	-23.5093	-190.319	43.068	-45.4098	-179.562	53.2487	-63.2044	-236.496	51.0346	20.5498	-240.321	55.3183	48.9188	-255.912	80.659	30.29	
49	0.408333	-243.362	122.782	27.5639	-222.548	135.476	4.88652	-210.789	142.099	-21.2084	-194.731	143.728	-43.0482	-244.705	88.4194	-52.1674	-224.457	94.9656	-75.6151	-198.395	109.468	-78.3349	-237.726	62.0851	-51.7242	-221.963	64.8392	-80.4438	-193.232	74.8505	-101.133	-221.392	46.6474	-42.2309	-206.975	50.9662	-71.5595	-185.619	60.0243	-87.4081	-203.669	41.2378	-19.1885	-190.981	44.5086	-43.0752	-175.127	53.0534	-66.1818	-236.488	48.8835	16.4691	-239.668	55.8034	49.4514	-256.916	78.9658	27.3322	
50	0.416667	-245.402	119.474	32.2059	-226.489	136.027	3.75713	-214.791	142.374	-19.7858	-200.022	149.676	-41.6799	-248.69	87.4702	-47.9135	-227.893	87.0303	-76.8781	-205.535	103.046	-85.6446	-236.388	59.5314	-50.9526	-222.349	61.5269	-81.5352	-198.145	70.6785	-100.782	-220.711	46.7705	-40.8182	-203.227	48.8597	-71.7025	-182.895	62.6408	-88.8971	-197.883	40.159	-23.5981	-185.741	41.6828	-42.6619	-176.807	55.1264	-64.3435	-234.602	47.621	18.1722	-238.546	49.3334	48.7126	-257.254	74.8521	26.4366	
51	0.425	-247.255	117.788	32.246	-229.67	138.408	5.8403	-217.527	141.599	-19.3617	-203.186	148.83	-43.6601	-248.527	82.9112	-49.7145	-232.701	85.8612	-77.0422	-206.299	99.6548	-90.2539	-236.497	58.3728	-50.6759	-226.745	60.9468	-79.8748	-197.021	70.6834	-105.138	-219.653	48.2724	-42.7672	-204.463	52.1135	-72.0981	-183.179	61.2405	-86.3606	-195.174	38.7208	-20.6801	-182.834	46.3989	-45.1365	-174.2	61.9385	-63.427	-233.43	47.6242	15.8108	-235.108	47.5296	49.5761	-258.99	73.7883	25.2572	
52	0.433333	-248.373	111.402	29.9275	-232.5	132.917	7.49125	-221.948	142.179	-25.2845	-207.154	147.051	-42.7368	-248.016	79.0799	-47.7051	-233.91	81.9926	-75.61	-208.892	96.1523	-91.0761	-234.645	54.4197	-53.8243	-226.408	59.2911	-80.5094	-203.483	72.8563	-104.769	-214.444	44.8252	-40.0789	-203.142	52.1395	-70.7731	-181.843	64.2029	-87.7052	-192.554	40.2235	-21.7424	-180.321	48.4821	-45.0027	-167.798	63.0815	-66.1748	-230.948	46.8341	14.63	-234.398	44.8023	52.0897	-258.404	70.8861	23.6023	
53	0.441667	-250.402	112.095	32.6427	-235.213	132.648	2.43163	-224.185	141.339	-23.9379	-209.811	145.052	-40.4317	-249.062	77.6313	-46.7768	-234.799	81.8341	-75.9825	-214.764	94.4149	-90.6263	-237.34	56.4002	-53.7288	-224.248	58.6987	-83.0638	-202.252	70.5724	-104.348	-216.986	47.8788	-43.2599	-201.635	51.3098	-68.8418	-185.949	64.999	-86.3157	-194.903	41.4651	-22.2248	-182.426	49.5962	-44.6401	-171.457	63.8255	-64.2065	-229.911	41.9161	19.6034	-234.455	44.559	50.2305	-259.032	69.4193	24.0458	
54	0.45	-250.895	110.589	28.224	-235.061	130.797	5.31555	-224.792	140.321	-22.3364	-210.131	144.483	-40.0116	-247.767	77.2025	-47.9264	-231.935	83.262	-78.2208	-212.423	96.3314	-89.7435	-233.619	52.582	-50.8391	-223.054	59.815	-83.0129	-202.537	72.9414	-105.422	-212.532	45.1072	-41.0972	-197.498	51.6506	-70.9731	-183.911	68.09	-86.0689	-191.868	42.4115	-24.8315	-180.737	50.3649	-44.7736	-171.29	68.6996	-62.7039	-228.583	41.7676	17.0846	-229.811	44.7561	51.5072	-256.207	69.5005	25.761	
55	0.458333	-248.233	108.387	30.0861	-234.076	131.2	2.39176	-222.675	136.073	-21.5797	-209.297	146.177	-43.5219	-246.353	76.416	-45.8893	-229.425	83.9842	-74.3433	-207.518	100.97	-86.149	-235.309	54.3752	-50.9961	-224.717	59.9817	-83.0628	-202.815	70.6394	-102.122	-215.581	46.8823	-40.1261	-197.701	53.7471	-72.8767	-183.073	69.4626	-86.1289	-191.001	41.7767	-23.798	-182.898	51.0354	-43.8237	-167.936	71.1838	-64.1611	-228.626	44.8765	17.4564	-232.064	46.1629	48.9184	-256.239	66.6319	29.2337	
56	0.466667	-248.508	108.259	28.7321	-233.476	130.323	2.44501	-223.128	136.927	-23.782	-209.134	143.466	-42.5103	-246.502	77.6636	-48.6561	-229.594	87.5312	-73.2694	-208.156	106.518	-80.4341	-234.726	53.1626	-52.5097	-221.464	59.2835	-82.6154	-199.208	73.2804	-103.289	-214.057	46.0786	-39.7732	-197.279	54.2195	-71.8324	-182.866	73.4463	-86.8959	-193.597	42.9251	-21.0784	-183.495	50.6378	-43.1836	-170.138	70.0751	-63.7111	-225.378	39.8241	14.4507	-229.032	42.3372	52.6207	-254.746	67.5907	25.7744	
